<svg xmlns="http://www.w3.org/2000/svg" width="43" height="30" viewBox="0 0 43 30">
    <g fill="none" fill-rule="nonzero">
        <path fill="#000" d="M39.807 1H3.467c-.126.002-.252.003-.378.007a5.49 5.49 0 0 0-.822.072c-.275.05-.532.13-.782.258A2.623 2.623 0 0 0 .336 2.486c-.127.25-.208.506-.257.782a5.454 5.454 0 0 0-.073.822c-.003.125-.005.251-.005.377L0 4.916v20.608l.006.378c.008.273.024.55.073.821.05.276.13.532.257.782a2.614 2.614 0 0 0 1.15 1.15c.25.127.506.208.781.257.271.049.548.065.822.072l.378.006h36.788l.378-.006c.274-.007.55-.023.823-.072.275-.05.53-.13.78-.258a2.61 2.61 0 0 0 1.15-1.149c.128-.25.208-.506.257-.782a5.45 5.45 0 0 0 .073-.821c.003-.126.005-.252.005-.378.002-.15.002-.299.002-.449V4.915c0-.149 0-.298-.002-.448 0-.126-.002-.252-.005-.377a5.453 5.453 0 0 0-.073-.822 2.747 2.747 0 0 0-.257-.782 2.635 2.635 0 0 0-1.93-1.407 5.505 5.505 0 0 0-.823-.072A18.864 18.864 0 0 0 40.255 1L39.807 1z"/>
        <path fill="#FFF" d="M39.807 1.933h.442l.36.006c.208.006.453.017.681.058.198.036.365.09.524.171a1.688 1.688 0 0 1 .741.742c.08.158.135.324.17.523.041.226.052.472.058.682.003.119.005.238.005.36.002.146.002.293.002.44v20.16c0 .148 0 .294-.002.445 0 .118-.002.237-.005.356-.006.21-.017.456-.058.684a1.81 1.81 0 0 1-.17.522 1.69 1.69 0 0 1-.742.741c-.159.081-.325.135-.521.17a4.744 4.744 0 0 1-.68.059l-.364.005H3.471c-.12 0-.24-.003-.357-.005a4.753 4.753 0 0 1-.682-.058 1.833 1.833 0 0 1-.524-.172 1.674 1.674 0 0 1-.74-.74 1.832 1.832 0 0 1-.171-.525 4.615 4.615 0 0 1-.058-.68c-.003-.12-.005-.24-.005-.358l-.001-.351V4.473c.001-.12.003-.239.006-.358a4.62 4.62 0 0 1 .058-.683c.036-.198.09-.364.171-.524a1.683 1.683 0 0 1 .74-.74c.16-.08.326-.135.524-.17.228-.042.473-.053.683-.059.12-.003.239-.004.358-.005l.443-.001h35.891"/>
        <g fill="#000">
            <path d="M11.936 10.414c.374-.468.628-1.096.561-1.739-.548.027-1.216.362-1.604.83-.347.401-.655 1.057-.575 1.672.616.053 1.23-.307 1.618-.763M12.49 11.297c-.893-.053-1.653.507-2.08.507-.426 0-1.08-.48-1.786-.467-.92.014-1.773.534-2.24 1.36-.96 1.655-.253 4.11.68 5.457.454.667 1 1.4 1.72 1.374.68-.026.947-.44 1.773-.44.827 0 1.067.44 1.787.427.746-.013 1.213-.667 1.667-1.334.52-.76.732-1.494.746-1.534-.014-.014-1.44-.561-1.453-2.202-.014-1.374 1.12-2.027 1.173-2.068-.64-.946-1.64-1.053-1.987-1.08"/>
            <g>
                <path d="M20.27 9.438c1.941 0 3.293 1.338 3.293 3.287 0 1.956-1.38 3.301-3.342 3.301h-2.15v3.42h-1.554V9.437h3.752zm-2.2 5.284h1.783c1.352 0 2.122-.728 2.122-1.99s-.77-1.983-2.115-1.983h-1.79v3.973zM23.969 17.372c0-1.276.978-2.06 2.712-2.157l1.997-.118v-.562c0-.811-.548-1.297-1.463-1.297-.867 0-1.408.416-1.54 1.068H24.26c.084-1.317 1.207-2.288 3.01-2.288 1.769 0 2.899.936 2.899 2.4v5.027h-1.436v-1.2H28.7c-.423.812-1.346 1.325-2.303 1.325-1.428 0-2.427-.888-2.427-2.198zm4.709-.66v-.575l-1.796.111c-.895.063-1.401.458-1.401 1.082 0 .638.527 1.054 1.331 1.054 1.048 0 1.866-.721 1.866-1.671zM31.524 22.13v-1.215c.111.028.36.028.486.028.693 0 1.068-.291 1.296-1.04 0-.014.132-.444.132-.45l-2.635-7.303h1.623l1.844 5.936h.028l1.845-5.936h1.581l-2.733 7.677c-.623 1.768-1.345 2.337-2.857 2.337-.124 0-.499-.014-.61-.035z"/>
            </g>
        </g>
    </g>
</svg>
