<svg xmlns="http://www.w3.org/2000/svg" xmlns:xlink="http://www.w3.org/1999/xlink" width="30" height="18" viewBox="0 0 30 18">
    <defs>
        <rect id="a" width="30" height="18" rx="2"/>
        <path id="b" d="M7.235 18H26.06C28.236 18 30 16.23 30 14.055v-3.946S21.96 15.56 7.235 18z"/>
    </defs>
    <g fill="none" fill-rule="evenodd">
        <g>
            <use fill="#FFF" xlink:href="#a"/>
            <rect width="29" height="17" x=".5" y=".5" stroke="#E6772F" rx="2"/>
            <use fill="#E6772F" xlink:href="#b"/>
        </g>
        <path fill="#1A1919" d="M5.487 8.947c-.226.192-.512.276-.97.276h-.191V6.925h.19c.459 0 .734.079.97.281a1.168 1.168 0 0 1 0 1.74zm-.829-2.61h-1.04v3.475h1.034c.55 0 .948-.125 1.296-.402.414-.327.66-.822.66-1.335 0-1.026-.802-1.738-1.95-1.738zM6.934 6.337h.706v3.475h-.706zM9.373 7.669c-.426-.15-.55-.25-.55-.437 0-.219.222-.384.528-.384.212 0 .387.081.573.28l.369-.463a1.623 1.623 0 0 0-1.066-.386c-.643 0-1.133.428-1.133.994 0 .48.228.724.892.955.278.093.42.156.49.199a.41.41 0 0 1 .213.358c0 .282-.234.49-.55.49a.841.841 0 0 1-.773-.464l-.457.423c.327.458.718.662 1.257.662.735 0 1.253-.47 1.253-1.142 0-.553-.24-.803-1.046-1.085M10.642 8.075c0 1.022.838 1.814 1.918 1.814.304 0 .565-.057.886-.202v-.799c-.284.273-.533.38-.855.38-.714 0-1.219-.493-1.219-1.197a1.18 1.18 0 0 1 1.188-1.194c.336 0 .592.114.886.391v-.797a1.876 1.876 0 0 0-.872-.213c-1.073 0-1.932.808-1.932 1.817M19.185 8.67l-.969-2.333h-.772l1.54 3.563h.38l1.569-3.563h-.766l-.982 2.333M21.254 9.812h2.009v-.589h-1.3v-.938h1.25v-.589h-1.25v-.77h1.3v-.59h-2.009v3.476M24.646 7.935h-.205V6.884h.217c.442 0 .68.177.68.516 0 .348-.238.535-.692.535zm1.42-.573c0-.65-.466-1.025-1.284-1.025H23.73v3.475h.71V8.415h.093l.978 1.397h.872L25.24 8.347c.534-.104.827-.453.827-.985z"/>
        <path fill="#E6772F" d="M17.544 8.083c0 1.001-.848 1.812-1.894 1.812-1.046 0-1.893-.81-1.893-1.812 0-1 .847-1.811 1.893-1.811s1.894.81 1.894 1.811"/>
    </g>
</svg>
