<?xml version="1.0" encoding="UTF-8"?>
<svg width="36px" height="36px" viewBox="0 0 36 36" version="1.1" xmlns="http://www.w3.org/2000/svg" xmlns:xlink="http://www.w3.org/1999/xlink">
    <title>004-clock</title>
    <defs>
        <polygon id="path-1" points="0.9707 0.951042071 35.9707 0.951042071 35.9707 35.9510421 0.9707 35.9510421"></polygon>
    </defs>
    <g id="STRIP" stroke="none" stroke-width="1" fill="none" fill-rule="evenodd">
        <g id="D-PLP_COVIDSTRIP" transform="translate(-945.000000, -170.000000)">
            <g id="Group-12" transform="translate(282.000000, 169.000000)">
                <g id="Group-11" transform="translate(663.000000, 0.000000)">
                    <g id="004-clock" transform="translate(0.000000, 1.000000)">
                        <g id="Group-3">
                            <mask id="mask-2" fill="white">
                                <use xlink:href="#path-1"></use>
                            </mask>
                            <g id="Clip-2"></g>
                            <path d="M32.6406,19.2335663 C32.4605,19.2335663 32.3105,19.3840518 32.3105,19.5647346 C32.2809,23.357068 30.7207,26.7880356 28.2309,29.2859935 C25.7406,31.754055 22.3207,33.2891068 18.5105,33.2891068 C14.7008,33.2891068 11.2508,31.754055 8.7605,29.226 C6.3008,26.7277411 4.7406,23.2966731 4.7406,19.474644 C4.7406,15.6521133 6.2707,12.1909482 8.7906,9.69309061 C11.0707,7.40561165 14.1309,5.93095469 17.5207,5.68987702 L14.6707,7.91706149 C14.5207,8.03775081 14.4906,8.24812945 14.6105,8.3685178 C14.7309,8.51900324 14.9406,8.54910032 15.0605,8.4288123 L18.7508,5.569589 C18.7809,5.53939159 18.7809,5.53939159 18.7809,5.5092945 L18.8105,5.47949838 C18.8105,5.44930097 18.8105,5.44930097 18.8406,5.41910356 C18.8406,5.38890615 18.8406,5.38890615 18.8406,5.35880906 C18.8406,5.35880906 18.8406,5.35880906 18.8406,5.32901294 C18.8406,5.29881553 18.8406,5.29881553 18.8406,5.26861812 C18.8406,5.23842071 18.8406,5.23842071 18.8406,5.20832362 C18.8406,5.20832362 18.8406,5.20832362 18.8406,5.17852751 C18.8406,5.1483301 18.8105,5.1483301 18.8105,5.11813269 L18.8105,5.08793528 C18.7809,5.05783819 18.7809,5.05783819 18.7508,5.02804207 L18.7207,4.99784466 L14.8207,3.04153398 C14.6707,2.95104207 14.4605,3.01133657 14.3707,3.19201942 C14.2809,3.34250485 14.3406,3.55298382 14.5207,3.64347573 L17.3105,5.02804207 C13.8309,5.32901294 10.7105,6.86366343 8.3707,9.21143689 C5.7008,11.8296828 4.0809,15.4714304 4.0809,19.474644 C4.0809,23.477356 5.7008,27.0890065 8.3105,29.7374498 C10.9508,32.3257994 14.5508,33.9510421 18.5406,33.9510421 C22.5008,33.9510421 26.1008,32.3559968 28.7105,29.7374498 C31.3207,27.1494013 32.9406,23.5377508 32.9707,19.5647346 C32.9707,19.3840518 32.8207,19.2335663 32.6406,19.2335663 Z" id="Fill-1" stroke="#000000" fill="#000000" mask="url(#mask-2)"></path>
                        </g>
                        <path d="M24.6130073,21.2785879 L23.4793094,21.3092061 L23.4793094,18.989645 C23.4793094,18.8043894 23.4515683,18.649752 23.3960861,18.5876909 C23.3410648,18.5257328 23.2578415,18.4951146 23.147338,18.4951146 C22.9540721,18.4951146 22.8431077,18.6803702 22.8431077,19.0516031 L22.8431077,21.3401336 L19.7467052,21.3711641 L20.8249209,19.0516031 L22.5666185,15.5570039 C22.6221007,15.4329847 22.6498418,15.371336 22.6498418,15.3092748 C22.6498418,15.2166985 22.5943596,15.1546374 22.5393383,15.0930917 C22.4838561,15.0310306 22.4010937,15 22.2901293,15 C22.1518847,15 22.0136401,15.1237099 21.9031366,15.3403054 C21.1014101,17.1339962 20.1891801,19.0516031 19.1937268,21.0618893 C19.0554822,21.2165267 19,21.4021947 19,21.5568321 C19,21.8350763 19.1659857,21.9897137 19.4979571,21.9897137 C19.691223,21.9897137 20.2164603,21.9897137 21.0459279,21.9586832 C21.8753955,21.9586832 22.456115,21.9586832 22.8431077,21.9586832 C22.8431077,22.1753817 22.8431077,22.453626 22.8431077,22.7939313 C22.8431077,23.1342367 22.8431077,23.3814504 22.8431077,23.5360878 C22.8431077,23.8453626 22.9540721,24 23.1750791,24 C23.3688059,24 23.4515683,23.8453626 23.4515683,23.5671184 L23.4515683,21.9586832 L24.6680286,21.9586832 C24.8894965,21.9586832 25,21.8350763 25,21.5878627 C25,21.3711641 24.8617554,21.2785879 24.6130073,21.2785879 Z" id="Fill-4" stroke="#000000" fill="#000000"></path>
                        <path d="M16.6525661,23.3008784 C15.9304241,23.3313851 15.3956361,23.3313851 15.0482022,23.3313851 C14.3528887,23.3313851 13.6043639,23.3313851 12.7753534,23.3313851 L15.0213737,20.8074324 C15.1282422,20.6859122 15.2887677,20.472973 15.5561616,20.1689189 C15.8235556,19.8648649 15.9840811,19.6522297 16.0641211,19.5307095 C16.1446067,19.4087838 16.2783037,19.2266554 16.4120006,18.9831081 C16.5456976,18.7400676 16.6525661,18.527027 16.7057775,18.3144932 C16.7594346,18.1014527 16.7862631,17.8584122 16.7862631,17.5844595 C16.7862631,16.8243243 16.5456976,16.2162162 16.0641211,15.7300338 C15.5829902,15.2434459 14.9945452,15 14.3260602,15 C13.9517978,15 13.5775353,15.0914189 13.2032729,15.3040541 C12.8285648,15.5169932 12.5079594,15.7601351 12.2405654,16.0641892 C12.0800399,16.2466216 12,16.3986486 12,16.5506757 C12,16.6421959 12.0263829,16.7332095 12.0800399,16.794223 C12.133697,16.8547297 12.2137369,16.8852365 12.2937769,16.8852365 C12.3206054,16.8852365 12.3474339,16.8852365 12.3742624,16.8852365 C12.401091,16.8852365 12.4274738,16.8852365 12.4543024,16.8547297 C12.4811309,16.8547297 12.5079594,16.8243243 12.5079594,16.8243243 C12.534788,16.8243243 12.534788,16.794223 12.5611708,16.7637162 L12.6148279,16.7027027 L12.6684849,16.6421959 L12.7216963,16.5811824 C13.2296558,16.0035811 13.7644437,15.7300338 14.3260602,15.7300338 C14.8608482,15.7300338 15.3155962,15.9121622 15.6630301,16.2771284 C16.0109097,16.6421959 16.1978181,17.098277 16.1978181,17.6148649 C16.1978181,17.7668919 16.1709895,17.8885135 16.1709895,18.0405405 C16.1709895,18.1624662 16.1177781,18.2839865 16.0372925,18.4360135 C15.9572526,18.5880405 15.9035956,18.7095608 15.8503842,18.8006757 C15.7967271,18.8920946 15.7166872,19.0441216 15.5829902,19.1961486 C15.4761217,19.3481757 15.3688076,19.4696959 15.3155962,19.5307095 C15.2619391,19.5912162 15.1550707,19.7128378 15.0213737,19.8952703 C14.8876767,20.0472973 14.7808082,20.1689189 14.7539797,20.2298311 C13.9786263,21.1419932 13.2032729,22.0236486 12.3742624,22.9054054 C12.133697,23.1793581 12.0263829,23.3918919 12.0263829,23.5439189 C12.0263829,23.847973 12.1600799,24 12.4274738,24 L15.1550707,24 C15.3688076,24 15.6362016,24 15.9572526,24 C16.2783037,24 16.4920406,24 16.598909,24 C16.866303,24 17,23.8784797 17,23.6354392 C17,23.4223986 16.8931315,23.3008784 16.6525661,23.3008784 Z" id="Fill-5" stroke="#000000" fill="#000000"></path>
                    </g>
                </g>
            </g>
        </g>
    </g>
</svg>