<?xml version="1.0" encoding="UTF-8"?>
<svg width="21px" height="28px" viewBox="0 0 21 28" version="1.1" xmlns="http://www.w3.org/2000/svg" xmlns:xlink="http://www.w3.org/1999/xlink">
    <title>002-lock</title>
    <g id="STRIP" stroke="none" stroke-width="1" fill="none" fill-rule="evenodd">
        <g id="D-PLP_COVIDSTRIP" transform="translate(-612.000000, -175.000000)" fill="#000000">
            <g id="Group-12" transform="translate(282.000000, 169.000000)">
                <g id="Group-4" transform="translate(330.000000, 0.000000)">
                    <g id="002-lock" transform="translate(0.000000, 6.000000)">
                        <path d="M18.375,28 L2.625,28 C1.17835156,28 0,26.7893312 0,25.3 L0,12.7 C0,11.2106687 1.17835156,10 2.625,10 L18.375,10 C19.8216484,10 21,11.2106687 21,12.7 L21,25.3 C21,26.7893312 19.8216484,28 18.375,28 Z M2.625,11.8 C2.14309375,11.8 1.75,12.2032 1.75,12.7 L1.75,25.3 C1.75,25.7968 2.14309375,26.2 2.625,26.2 L18.375,26.2 C18.8569063,26.2 19.25,25.7968 19.25,25.3 L19.25,12.7 C19.25,12.2032 18.8569063,11.8 18.375,11.8 L2.625,11.8 Z" id="Fill-1"></path>
                        <path d="M16.125,12 C15.642,12 15.25,11.616 15.25,11.1428571 L15.25,6.85714286 C15.25,4.02160714 12.8946094,1.71428571 10,1.71428571 C7.10539063,1.71428571 4.75,4.02160714 4.75,6.85714286 L4.75,11.1428571 C4.75,11.616 4.358,12 3.875,12 C3.392,12 3,11.616 3,11.1428571 L3,6.85714286 C3,3.07532143 6.13939063,0 10,0 C13.8606094,0 17,3.07532143 17,6.85714286 L17,11.1428571 C17,11.616 16.608,12 16.125,12 Z" id="Fill-2"></path>
                    </g>
                </g>
            </g>
        </g>
    </g>
</svg>