<?xml version="1.0" encoding="utf-8"?>
<!-- Generator: Adobe Illustrator 25.4.1, SVG Export Plug-In . SVG Version: 6.00 Build 0)  -->
<svg version="1.1" id="Livello_1" xmlns="http://www.w3.org/2000/svg" xmlns:xlink="http://www.w3.org/1999/xlink" x="0px" y="0px"
	 viewBox="0 0 30 30" style="enable-background:new 0 0 30 30;" xml:space="preserve">
<style type="text/css">
	.st0{filter:url(#Adobe_OpacityMaskFilter);}
	.st1{fill-rule:evenodd;clip-rule:evenodd;fill:#FFFFFF;}
	
		.st2{mask:url(#mask-2_00000124851115103220904080000007742229564643517864_);fill-rule:evenodd;clip-rule:evenodd;fill:#DB3B26;stroke:#DB3B26;stroke-width:0.5;}
	.st3{filter:url(#Adobe_OpacityMaskFilter_00000085963117925064047370000013372599119319762579_);}
	
		.st4{mask:url(#mask-2_00000183231329583715591600000003314372885870223257_);fill-rule:evenodd;clip-rule:evenodd;fill:#DB3B26;stroke:#DB3B26;stroke-width:0.5;}
</style>
<g id="STRIP">
	<g id="D-PLP_COVIDSTRIP" transform="translate(-282.000000, -174.000000)">
		<g id="Group-12" transform="translate(282.000000, 169.000000)">
			<g id="Group-10">
				<g id="_x30_01-gift" transform="translate(0.000000, 5.000000)">
					<g id="Clip-2">
					</g>
					<defs>
						<filter id="Adobe_OpacityMaskFilter" filterUnits="userSpaceOnUse" x="2.8" y="9.8" width="24.5" height="17.5">
							<feColorMatrix  type="matrix" values="1 0 0 0 0  0 1 0 0 0  0 0 1 0 0  0 0 0 1 0"/>
						</filter>
					</defs>
					
						<mask maskUnits="userSpaceOnUse" x="2.8" y="9.8" width="24.5" height="17.5" id="mask-2_00000124851115103220904080000007742229564643517864_">
						<g class="st0">
							<polygon id="path-1_00000091725601769587504080000017388958445021069469_" class="st1" points="0,0 30,0 30,30 0,30 							
								"/>
						</g>
					</mask>
					<path id="Fill-1" class="st2" d="M26.9,15.3l-2.3-4.6c-0.2-0.4-0.6-0.7-1-0.7c-0.8,0-16.5,0-17.3,0c-0.4,0-0.8,0.3-1,0.7
						l-2.3,4.6c-0.1,0.2-0.1,0.5,0,0.8c0.1,0.2,0.3,0.3,0.6,0.3h1.8v9.3C5.5,26.5,6,27,6.6,27c0.2,0,16.6,0,16.8,0
						c0.6,0,1.1-0.5,1.1-1.2v-4c0-0.2-0.2-0.4-0.4-0.4c-0.2,0-0.4,0.2-0.4,0.4v4c0,0.2-0.2,0.4-0.3,0.4h-8V12l1.9,3.9
						c0.2,0.3,0.5,0.6,0.8,0.6h5.7V20c0,0.2,0.2,0.4,0.4,0.4c0.2,0,0.4-0.2,0.4-0.4v-3.6h1.8c0.2,0,0.5-0.1,0.6-0.3
						C27,15.9,27,15.6,26.9,15.3z M3.7,15.7C3.7,15.7,3.7,15.7,3.7,15.7L6,11c0.1-0.2,0.2-0.3,0.4-0.3h8.1c-0.3,0.6-1.9,4-2.3,4.8
						c0,0.1-0.1,0.1-0.2,0.1C11.7,15.7,3.9,15.7,3.7,15.7z M14.6,26.2h-8c-0.2,0-0.3-0.2-0.3-0.4v-9.3h5.7c0.3,0,0.7-0.2,0.8-0.6
						l1.9-3.9V26.2z M18.1,15.7c-0.1,0-0.1-0.1-0.2-0.1l-2.3-4.8h8.1c0.1,0,0.3,0.1,0.4,0.3l2.3,4.6c0,0,0,0,0,0
						C26,15.7,18.3,15.7,18.1,15.7z"/>
					<defs>
						
							<filter id="Adobe_OpacityMaskFilter_00000134958869354735371870000015674440882752195234_" filterUnits="userSpaceOnUse" x="9.7" y="1.8" width="9.5" height="8.5">
							<feColorMatrix  type="matrix" values="1 0 0 0 0  0 1 0 0 0  0 0 1 0 0  0 0 0 1 0"/>
						</filter>
					</defs>
					
						<mask maskUnits="userSpaceOnUse" x="9.7" y="1.8" width="9.5" height="8.5" id="mask-2_00000183231329583715591600000003314372885870223257_">
						<g style="filter:url(#Adobe_OpacityMaskFilter_00000134958869354735371870000015674440882752195234_);">
							<polygon id="path-1_00000168818308988594962060000013409240627279461032_" class="st1" points="0,0 30,0 30,30 0,30 							
								"/>
						</g>
					</mask>
					<path id="Fill-3" class="st4" d="M14.5,3.2c-0.8-1.4-2.7-1.7-3.8-0.5C10.3,3.3,10,3.9,10,4.6c0,2,1.3,4,3.4,5.3
						c0.1,0,0.1,0.1,0.2,0.1c0.1,0,0.2-0.1,0.3-0.2c0.1-0.2,0-0.4-0.1-0.5c-0.9-0.6-3.1-2.2-3.1-4.7c0-1.1,0.9-1.9,1.9-1.8
						c0.9,0.1,1.2,0.9,1.3,1c0.3,0.4,0.8,0.4,1.1,0c0.1-0.1,0.5-1,1.5-1c0.9,0,1.7,0.8,1.7,1.8c0,2.3-1.9,3.9-3.1,4.7
						C15,9.4,14.9,9.6,15,9.8c0.1,0.2,0.3,0.2,0.5,0.1C17.8,8.5,19,6.6,19,4.6C19,2.1,15.9,1,14.5,3.2z"/>
				</g>
			</g>
		</g>
	</g>
</g>
</svg>
