<svg xmlns="http://www.w3.org/2000/svg" width="20" height="20" viewBox="0 0 20 20">
    <path fill="#000" fill-rule="nonzero" d="M15.328.004L12.758 0C9.87 0 8.004 1.914 8.004 4.878v2.248H5.42a.404.404 0 0 0-.404.405v3.258c0 .223.18.404.404.404h2.584v8.222c0 .223.18.404.404.404h3.372a.404.404 0 0 0 .404-.404v-8.222h3.021c.224 0 .404-.18.404-.404l.002-3.258a.405.405 0 0 0-.405-.405h-3.022V5.22c0-.916.218-1.381 1.412-1.381l1.731-.001a.404.404 0 0 0 .404-.404V.408a.404.404 0 0 0-.403-.404z"/>
</svg>
