<svg xmlns="http://www.w3.org/2000/svg" width="28" height="20" viewBox="0 0 28 20">
    <g fill="none" fill-rule="evenodd">
        <rect width="28" height="20" fill="#FFF" rx="10"/>
        <path fill-rule="nonzero" stroke="#000" d="M18.02 11.234c-.113-1.452-.588-2.496-1.576-3.858-.088-.122-.159-.218-.318-.432a22.49 22.49 0 0 1-.577-.799c-.586-.86-.907-1.596-.983-2.444-1.054.87-1.918 2.188-2.233 3.434-.204.809-.278 1.71-.285 2.838l-.004.614-.6-.128c-.706-.15-1.199-.67-1.527-1.397a4.44 4.44 0 0 1-.26-.75c-.112.101-.241.245-.374.439-.422.616-.695 1.501-.73 2.731-.004.07-.005.137-.005.268 0 2.607 2.112 4.73 4.749 4.75a4.25 4.25 0 0 0-.108.014l.112-.013a4.955 4.955 0 0 0 .039 0 4.756 4.756 0 0 0 4.708-4.751c0-.039-.004-.12-.01-.223l-.004-.077a20.77 20.77 0 0 0-.015-.216zm-4.68 5.267z"/>
    </g>
</svg>
