<svg xmlns="http://www.w3.org/2000/svg" width="28" height="20" viewBox="0 0 28 20">
    <g fill="none" fill-rule="evenodd">
        <rect width="28" height="20" fill="#FFF" rx="10"/>
        <path fill-rule="nonzero" stroke="#000" d="M16.66 5.501c-.85.06-1.684.47-2.332 1.134l-.373.38-.356-.395a3.383 3.383 0 0 0-2.322-1.12c-.707 0-1.405.316-1.93.904-.657.619-.961 1.554-.807 2.502.346 2.376 2.97 5.351 5.352 6.575.075.025.141.025.145.03 2.443-1.285 5.08-4.254 5.424-6.614.153-.94-.151-1.874-.804-2.49A3.39 3.39 0 0 0 16.66 5.5z"/>
    </g>
</svg>
