<svg xmlns="http://www.w3.org/2000/svg" width="20" height="20" viewBox="0 0 20 20">
    <g fill="#000" fill-rule="nonzero">
        <path d="M14.4 0H5.49A5.495 5.495 0 0 0 0 5.489V14.4a5.495 5.495 0 0 0 5.489 5.489H14.4a5.495 5.495 0 0 0 5.489-5.49V5.49A5.495 5.495 0 0 0 14.4 0zm3.725 14.4a3.728 3.728 0 0 1-3.724 3.725H5.489A3.728 3.728 0 0 1 1.765 14.4V5.489a3.728 3.728 0 0 1 3.724-3.724H14.4a3.728 3.728 0 0 1 3.724 3.724V14.4z"/>
        <path d="M9.945 4.82A5.13 5.13 0 0 0 4.82 9.945a5.13 5.13 0 0 0 5.125 5.125 5.13 5.13 0 0 0 5.125-5.125A5.13 5.13 0 0 0 9.945 4.82zm0 8.485a3.364 3.364 0 0 1-3.36-3.36 3.364 3.364 0 0 1 3.36-3.36 3.364 3.364 0 0 1 3.36 3.36 3.364 3.364 0 0 1-3.36 3.36zM15.285 3.324a1.3 1.3 0 0 0-1.294 1.294c0 .34.139.674.38.915.24.24.574.379.914.379.341 0 .674-.139.915-.379.241-.241.379-.575.379-.915a1.3 1.3 0 0 0-.379-.916 1.3 1.3 0 0 0-.915-.378z"/>
    </g>
</svg>
