<svg xmlns="http://www.w3.org/2000/svg" width="40" height="40" viewBox="0 0 40 40">
    <path fill="#000" fill-rule="nonzero" d="M20 9.5a3.5 3.5 0 0 1 3.495 3.308L23.5 13v1h1.617a1 1 0 0 1 .992.876l1.75 14A1 1 0 0 1 26.867 30H13.133a1 1 0 0 1-.992-1.124l1.75-14a1 1 0 0 1 .992-.876H16.5v-1A3.5 3.5 0 0 1 20 9.5zm5.117 5.5H23.5v2a.5.5 0 0 1-.992.09L22.5 17v-2h-5v2a.5.5 0 0 1-.992.09L16.5 17v-2h-1.617l-1.75 14h13.734l-1.75-14zM20 10.5a2.5 2.5 0 0 0-2.495 2.336L17.5 13v1h5v-1a2.5 2.5 0 0 0-2.5-2.5z"/>
</svg>
