<svg width="14" height="18" xmlns="http://www.w3.org/2000/svg">

 <g>
  <title>background</title>
  <rect fill="none" id="canvas_background" height="20" width="16" y="-1" x="-1"/>
 </g>
 <g>
  <title>Layer 1</title>
  <path id="svg_1" d="m12.2685,7.211l-0.312,0l0,-1.459c0,-2.698 -2.141,-4.953 -4.818,-5.001l-0.292,0c-2.677,0.048 -4.819,2.303 -4.819,5.001l0,1.46l-0.312,0c-0.48,0 -0.872,0.495 -0.872,1.108l0,7.318c0,0.612 0.392,1.112 0.872,1.112l10.553,0c0.48,0 0.873,-0.5 0.873,-1.112l0,-7.318c0,-0.613 -0.392,-1.109 -0.873,-1.109zm-4.288,4.76l0,2.212a0.472,0.472 0 0 1 -0.465,0.467l-1.046,0a0.472,0.472 0 0 1 -0.466,-0.467l0,-2.213a1.316,1.316 0 0 1 -0.389,-0.946c0,-0.702 0.542,-1.304 1.232,-1.332c0.073,-0.003 0.219,-0.003 0.292,0c0.69,0.028 1.231,0.63 1.231,1.332c0,0.37 -0.143,0.704 -0.389,0.946l0,0.001zm1.922,-4.76l-5.82,0l0,-1.459c0,-1.607 1.306,-2.937 2.91,-2.937c1.603,0 2.91,1.33 2.91,2.937l0,1.46l0,-0.001z" stroke="#000" fill-rule="nonzero" fill="#000"/>
 </g>
</svg>