<svg xmlns="http://www.w3.org/2000/svg" xmlns:xlink="http://www.w3.org/1999/xlink" width="57" height="24" viewBox="0 0 57 24">
    <defs>
        <path id="a" d="M.094.148h48.33V23.97H.094z"/>
        <path id="c" d="M.034.148h7.39V8.18H.035z"/>
    </defs>
    <g fill="none" fill-rule="evenodd">
        <g transform="translate(8.05)">
            <mask id="b" fill="#fff">
                <use xlink:href="#a"/>
            </mask>
            <path fill="#1D1D1B" d="M5.49 4.124c0 1.539 1.09 2.79 2.677 2.79s2.677-1.251 2.677-2.79c0-1.523-1.09-2.79-2.677-2.79S5.49 2.601 5.49 4.124m-1.282.016c0-2.213 1.747-3.992 3.96-3.992 2.211 0 3.959 1.78 3.959 3.992a3.938 3.938 0 0 1-3.96 3.96 3.938 3.938 0 0 1-3.96-3.96M18.22 4.044c0 1.474.866 2.87 2.47 2.87 1.65 0 2.516-1.331 2.516-2.854 0-1.507-.946-2.726-2.533-2.726-1.49 0-2.452 1.299-2.452 2.71zm6.205 3.479c0 1.202 0 2.244-.77 3.238-.705.897-1.795 1.33-2.918 1.33-2.1 0-3.655-1.33-3.703-3.463h1.283c.016 1.395 1.026 2.277 2.405 2.277 1.987 0 2.42-1.459 2.42-3.158v-.898h-.032c-.61.786-1.603 1.25-2.613 1.25-2.196 0-3.59-1.843-3.59-3.943 0-2.116 1.41-4.008 3.638-4.008 1.042 0 1.956.465 2.565 1.283h.032V.356h1.283v7.167zM31.767 4.557c0 1.266.145 2.356 1.7 2.356s1.699-1.09 1.699-2.356v-4.2h1.282V4.7c0 2.004-.753 3.398-2.981 3.398-2.229 0-2.982-1.394-2.982-3.398V.356h1.282v4.2zM47.07 3.306c-.177-1.09-1.09-1.972-2.213-1.972-1.106 0-2.133.882-2.293 1.972h4.505zm-4.57 1.09c.016 1.395 1.01 2.517 2.47 2.517 1.09 0 1.794-.657 2.292-1.555l1.09.626c-.722 1.346-1.94 2.115-3.48 2.115-2.244 0-3.686-1.715-3.686-3.88 0-2.227 1.298-4.07 3.655-4.07 2.42 0 3.703 2.003 3.575 4.247H42.5zM2.939 19.603c-.085-.54-.527-.976-1.07-.976-.535 0-1.031.437-1.109.976H2.94zm-2.21.54c.008.691.489 1.247 1.194 1.247.527 0 .869-.326 1.109-.77l.527.31c-.349.666-.938 1.047-1.682 1.047-1.086 0-1.783-.85-1.783-1.921 0-1.104.627-2.016 1.767-2.016 1.17 0 1.791.992 1.73 2.103H.728zM5.776 18.143h.721l1.288 2.675 1.178-2.675h.705l-2.69 5.827h-.705l1.178-2.445zM14.7 19.603c-.085-.54-.527-.976-1.07-.976-.535 0-1.031.437-1.109.976H14.7zm-2.21.54c.008.691.489 1.247 1.194 1.247.528 0 .869-.326 1.11-.77l.526.31c-.349.666-.938 1.047-1.682 1.047-1.086 0-1.783-.85-1.783-1.921 0-1.104.628-2.016 1.767-2.016 1.171 0 1.791.992 1.73 2.103H12.49zM19.36 20.667l1.132-2.81 1.14 2.81 1.085-2.524h.705l-1.806 3.993-1.124-2.779-1.125 2.779-1.79-3.993h.705zM28.492 19.603c-.085-.54-.526-.976-1.07-.976-.534 0-1.03.437-1.108.976h2.178zm-2.21.54c.009.691.49 1.247 1.195 1.247.527 0 .868-.326 1.108-.77l.528.31c-.349.666-.938 1.047-1.683 1.047-1.085 0-1.783-.85-1.783-1.921 0-1.104.628-2.016 1.768-2.016 1.17 0 1.79.992 1.729 2.103h-2.861zM32.26 19.969c0 .73.42 1.42 1.195 1.42.798 0 1.217-.658 1.217-1.412 0-.747-.458-1.35-1.225-1.35-.721 0-1.187.643-1.187 1.342zm3 1.905h-.62v-.516h-.015c-.318.413-.744.62-1.256.62-1.07 0-1.744-.93-1.744-1.962 0-1.064.659-1.977 1.752-1.977.496 0 .946.239 1.248.636h.015v-.532h.62v3.731zM38.936 18.548h.015c.217-.294.403-.509.807-.509.209 0 .38.072.558.175l-.295.58c-.124-.088-.21-.167-.372-.167-.682 0-.713.897-.713 1.381v1.866h-.62v-3.731h.62v.405z" mask="url(#b)"/>
        </g>
        <g>
            <mask id="d" fill="#fff">
                <use xlink:href="#c"/>
            </mask>
            <path fill="#1D1D1B" d="M5.982.148L3.738 5.214 1.493.148H.034L3.738 8.18 7.425.148z" mask="url(#d)"/>
        </g>
    </g>
</svg>
