<svg xmlns="http://www.w3.org/2000/svg" width="43" height="30" viewBox="0 0 43 30">
    <g fill="none" fill-rule="evenodd">
        <path fill="#F1F2F2" fill-rule="nonzero" d="M39.657 29H3.343A2.345 2.345 0 0 1 1 26.667V3.333A2.345 2.345 0 0 1 3.343 1h36.314A2.345 2.345 0 0 1 42 3.333v23.334C42 28.008 41.004 29 39.657 29z"/>
        <path fill="#FCB331" fill-rule="nonzero" d="M28.04 24.588l.54-.059h.48l.48-.058.48-.118.48-.059.48-.176.42-.118.48-.176.42-.177.42-.235.42-.236.42-.235.36-.294.36-.294.36-.294.36-.294.3-.353.3-.353.3-.353.3-.353.24-.412.24-.412.18-.411.24-.412.18-.412.12-.47.12-.471.12-.47.12-.471.06-.47V14l-.06-.47-.12-.471-.12-.47-.12-.471-.12-.412-.18-.47-.24-.412-.18-.412-.24-.412-.24-.353-.3-.412-.3-.353-.3-.353-.3-.294-.36-.353-.36-.294-.36-.294-.36-.235-.42-.235-.42-.236-.42-.235-.42-.177L31.4 6l-.42-.176-.48-.118-.48-.118-.48-.059-.48-.058-.48-.06h-1.02l-.48.06-.48.058-.48.06-.48.117-.48.118-.48.176-.42.176-.42.177-.42.235-.42.236-.42.235-.36.235-.36.294-.36.294-.36.353-.3.294-.3.353-.3.353-.24.412-.3.353-.24.412-.18.412-.18.411-.18.47-.18.413-.12.47-.12.47-.06.471-.06.471-.06.47v1l.06.471.06.47.06.471.12.47.12.472.18.47.18.412.18.412.18.411.24.412.3.412.24.353.3.353.3.353.3.353.36.294.36.294.36.294.36.294.42.235.42.236.42.235.42.177.42.176.48.118.48.176.48.059.48.118.48.058h.48z"/>
        <path fill="#ED1C2E" fill-rule="nonzero" d="M15.02 24.588l.48-.059h.48l.48-.058.48-.118.48-.059.48-.176.42-.118.48-.176.42-.177.42-.235.42-.236.36-.235.42-.294.36-.294.36-.294.36-.294.3-.353.3-.353.3-.353.24-.353.3-.412.18-.412.24-.411.18-.412.18-.412.18-.47.12-.471.12-.47.06-.471.06-.47.06-.471V14.47l-.06-.47-.06-.47-.06-.471-.12-.47-.12-.471-.18-.412-.18-.47-.18-.412-.24-.412-.18-.412-.3-.353-.24-.412-.3-.353-.3-.353-.3-.294-.36-.353-.36-.294-.36-.294-.42-.235-.36-.235-.42-.236-.42-.235-.42-.177L18.32 6l-.42-.176-.48-.118-.48-.118-.48-.059-.48-.058-.48-.06h-1.02l-.48.06-.48.058-.48.06-.48.117-.48.118L11.6 6l-.42.176-.42.177-.42.235-.42.236-.42.235-.36.235-.36.294-.36.294-.36.353-.3.294-.3.353-.3.353-.3.412-.24.353-.24.412-.18.412-.24.411-.18.47-.12.413-.12.47-.12.47-.12.471-.06.471v.47l-.06.53.06.47v.471l.06.47.12.471.12.47.12.472.12.47.18.412.24.412.18.411.24.412.24.412.3.353.3.353.3.353.3.353.36.294.36.294.36.294.36.294.42.235.42.236.42.235.42.177.42.176.48.118.48.176.48.059.48.118.48.058h.48z"/>
        <path fill="#FCB331" fill-rule="nonzero" d="M20.36 9.118h5.22v-.53h-4.74zM19.58 10.235h6v-.53h-5.64zM19.04 11.412h6.54v-.53h-6.3zM18.62 12.53h6.96v-.471H18.8zM18.86 18.118h6.72v-.47h-6.9zM19.34 19.294h6.24v-.53H19.1zM20.06 20.47h5.52v-.529H19.7zM21.02 21.588h4.56v-.53h-5.04zM18.38 13.706h7.2v-.53H18.5zM22.76 17h2.76v-.53h-2.64zM23 15.824h2.52v-.53h-2.46zM18.2 15.294h.72v.53h-.66z"/>
        <path fill="#FFF" fill-rule="nonzero" d="M16.88 14.706h-.06v-.059H15.8l-.06.059h-.06v.059h-.06v.059h-.06v.235h.06v.059l.06.058.12.06.06.058h.12l.12.059h.12l.06.059.12.059.12.058.06.06.12.058.06.118.06.117v.647l-.06.177-.06.118-.06.117-.06.059-.06.118-.12.058-.12.06-.06.058h-.12l-.12.059h-.12l-.12.059h-1.08l-.06-.06h-.24l-.06-.058h-.18l.12-.765h.06l.06.06h.12l.06.058h.36l.06.059h.6l.06-.059.06-.059h.06v-.059l.06-.058v-.295l-.06-.058-.12-.06h-.06L15.44 16l-.12-.059-.12-.059-.18-.058-.12-.06-.12-.117-.06-.059-.12-.117-.06-.177v-.588l.06-.118.06-.117.06-.118.06-.059.06-.059.06-.117.12-.06.06-.058h.12l.18-.059.12-.059H16.76l.06.06h.24z"/>
        <path stroke="#FFF" stroke-width=".216" d="M16.88 14.706h-.06v-.059H15.8l-.06.059h-.06v.059h-.06v.059h-.06v.235h.06v.059l.06.058.12.06.06.058h.12l.12.059h.12l.06.059.12.059.12.058.06.06.12.058.06.118.06.117v.647l-.06.177-.06.118-.06.117-.06.059-.06.118-.12.058-.12.06-.06.058h-.12l-.12.059h-.12l-.12.059h-1.08l-.06-.06h-.24l-.06-.058h-.18l.12-.765h.06l.06.06h.12l.06.058h.36l.06.059h.6l.06-.059.06-.059h.06v-.059l.06-.058v-.295l-.06-.058-.12-.06h-.06L15.44 16l-.12-.059-.12-.059-.18-.058-.12-.06-.12-.117-.06-.059-.12-.117-.06-.177v-.588l.06-.118.06-.117.06-.118.06-.059.06-.059.06-.117.12-.06.06-.058h.12l.18-.059.12-.059H16.76l.06.06h.24l-.18.764"/>
        <path fill="#FFF" fill-rule="nonzero" d="M17.66 13.176h.9l-.12.765h.54l-.12.706h-.54l-.36 1.824v.058l.06.06.06.058h.06l.06.059h.42v-.059h.06l-.12.588v.06h-.12l-.06.058h-.18l-.06.059h-.48l-.12-.06h-.18l-.12-.058h-.06l-.06-.059v-.059l-.06-.058v-.06L17 17v-.236l.06-.058z"/>
        <path stroke="#FFF" stroke-width=".216" d="M17.66 13.176h.9l-.12.765h.54l-.12.706h-.54l-.36 1.824v.058l.06.06.06.058h.06l.06.059h.42v-.059h.06l-.12.588v.06h-.12l-.06.058h-.18l-.06.059h-.48l-.12-.06h-.18l-.12-.058h-.06l-.06-.059v-.059l-.06-.058v-.06L17 17v-.236l.06-.058.6-3.53"/>
        <path fill="#FFF" fill-rule="nonzero" d="M19.7 15.882v.236l.06.058v.06l.06.058.06.059v.059l.06.059.06.058h.06l.06.06h.06l.06.058h.24l.12.059h.42l.06-.059h.18l.12-.059h.06l.12-.059.06-.058.12-.06-.12.824h-.06l-.06.06h-.12l-.06.058h-.24l-.06.059H20.36l-.18-.06h-.12l-.18-.058h-.18l-.12-.059-.18-.117-.12-.06-.12-.117-.12-.176-.12-.118-.06-.176-.06-.177-.06-.235v-.235l.06-.236v-.235l.06-.118v-.176l.06-.118.06-.117.06-.177.12-.118.12-.117.12-.118.12-.118.18-.117.18-.059.24-.059.24-.059H21.02l.12.06.12.058.12.059.12.059.12.117.12.118.06.118.06.117.06.177v.647l-.06.294v.176h-2.4l.12-.588h1.5v-.176l-.06-.06v-.176h-.06v-.058l-.06-.06v-.058h-.06l-.06-.059h-.06l-.06-.059h-.3l-.06.06h-.06l-.06.058h-.06l-.06.059v.059l-.06.058h-.06V15l-.06.059v.177z"/>
        <path stroke="#FFF" stroke-width=".216" d="M19.7 15.882v.236l.06.058v.06l.06.058.06.059v.059l.06.059.06.058h.06l.06.06h.06l.06.058h.24l.12.059h.42l.06-.059h.18l.12-.059h.06l.12-.059.06-.058.12-.06-.12.824h-.06l-.06.06h-.12l-.06.058h-.24l-.06.059H20.36l-.18-.06h-.12l-.18-.058h-.18l-.12-.059-.18-.117-.12-.06-.12-.117-.12-.176-.12-.118-.06-.176-.06-.177-.06-.235v-.235l.06-.236v-.235l.06-.118v-.176l.06-.118.06-.117.06-.177.12-.118.12-.117.12-.118.12-.118.18-.117.18-.059.24-.059.24-.059H21.02l.12.06.12.058.12.059.12.059.12.117.12.118.06.118.06.117.06.177v.647l-.06.294v.176h-2.4l.12-.588h1.5v-.176l-.06-.06v-.176h-.06v-.058l-.06-.06v-.058h-.06l-.06-.059h-.06l-.06-.059h-.3l-.06.06h-.06l-.06.058h-.06l-.06.059v.059l-.06.058h-.06V15l-.06.059v.177l-.18.646"/>
        <path fill="#FFF" fill-rule="nonzero" d="M27.56 14.118h-.06l-.06-.06h-.06L27.32 14h-.06l-.06-.059h-.3l-.06-.059h-.42l-.06.06h-.18l-.12.058-.06.059-.12.059-.06.058-.12.06-.06.117-.12.118-.06.176-.06.118-.06.176-.06.235v.648l.06.117V16l.06.118.06.058.06.118.12.059.06.059.12.059h.12l.12.058H26.84l.06-.058h.06l.12-.06.06-.058.06-.059-.12.882h-.06l-.06.06h-.06v.058h-.12l-.12.059h-.18l-.12.059h-.42l-.18-.06h-.3l-.18-.058-.12-.059-.18-.117-.12-.06-.12-.117-.12-.117-.12-.177-.06-.176-.12-.177-.06-.176v-.236l-.06-.235v-.235l.06-.236V15l.06-.118.06-.117v-.118l.06-.118v-.117l.06-.118.06-.059.06-.117.06-.118v-.059l.06-.117.06-.06.12-.058.06-.118.06-.059.06-.058.06-.06.12-.058.06-.059h.06l.12-.059.12-.059h.06l.12-.058h.12l.06-.06h.24l.12-.058h.42l.12.059h.3l.06.059h.18l.06.058h.18v.06h.06z"/>
        <path stroke="#FFF" stroke-width=".216" d="M27.56 14.118h-.06l-.06-.06h-.06L27.32 14h-.06l-.06-.059h-.3l-.06-.059h-.42l-.06.06h-.18l-.12.058-.06.059-.12.059-.06.058-.12.06-.06.117-.12.118-.06.176-.06.118-.06.176-.06.235v.648l.06.117V16l.06.118.06.058.06.118.12.059.06.059.12.059h.12l.12.058H26.84l.06-.058h.06l.12-.06.06-.058.06-.059-.12.882h-.06l-.06.06h-.06v.058h-.12l-.12.059h-.18l-.12.059h-.42l-.18-.06h-.3l-.18-.058-.12-.059-.18-.117-.12-.06-.12-.117-.12-.117-.12-.177-.06-.176-.12-.177-.06-.176v-.236l-.06-.235v-.235l.06-.236V15l.06-.118.06-.117v-.118l.06-.118v-.117l.06-.118.06-.059.06-.117.06-.118v-.059l.06-.117.06-.06.12-.058.06-.118.06-.059.06-.058.06-.06.12-.058.06-.059h.06l.12-.059.12-.059h.06l.12-.058h.12l.06-.06h.24l.12-.058h.42l.12.059h.3l.06.059h.18l.06.058h.18v.06h.06l-.18.882"/>
        <path fill="#FFF" fill-rule="nonzero" d="M35.72 17.412h-.96l.06-.353V17v.059l-.06.059-.06.058-.06.06-.06.058h-.06l-.06.059h-.06l-.06.059h-.3l-.06.059h-.12l-.18-.06h-.12l-.18-.058-.12-.059-.12-.118-.12-.117-.06-.118-.12-.117-.06-.177-.06-.118v-.176l-.06-.177v-.294l.06-.176v-.177l.06-.176.06-.177.06-.176.06-.176.12-.118.06-.118.12-.117.12-.118.12-.118.12-.059.12-.058.12-.06.12-.058.18-.059h.54l.06.059h.06l.06.059h.06l.06.059.06.058h.06l.06.06v.058h.06v.059l.06.059v.059l.24-1.295h.9z"/>
        <path stroke="#FFF" stroke-width=".216" d="M35.72 17.412h-.96l.06-.353V17v.059l-.06.059-.06.058-.06.06-.06.058h-.06l-.06.059h-.06l-.06.059h-.3l-.06.059h-.12l-.18-.06h-.12l-.18-.058-.12-.059-.12-.118-.12-.117-.06-.118-.12-.117-.06-.177-.06-.118v-.176l-.06-.177v-.294l.06-.176v-.177l.06-.176.06-.177.06-.176.06-.176.12-.118.06-.118.12-.117.12-.118.12-.118.12-.059.12-.058.12-.06.12-.058.18-.059h.54l.06.059h.06l.06.059h.06l.06.059.06.058h.06l.06.06v.058h.06v.059l.06.059v.059l.24-1.295h.9l-.72 4.236"/>
        <path fill="#FCB331" fill-rule="nonzero" d="M34.22 16.588h.24l.06-.059.06-.058h.06l.12-.06v-.058l.06-.059.06-.118.06-.058v-.06l.06-.117v-.059l.06-.117v-.647L35 15v-.059l-.06-.059-.06-.058h-.06l-.06-.06-.12-.058h-.12l-.12.059h-.12l-.06.059-.06.058-.06.06-.06.058-.06.059-.06.117v.06l-.06.058-.06.118v.176l-.06.06v.47l.06.176.06.118.12.117.06.06z"/>
        <path fill="#FFF" fill-rule="nonzero" d="M13.94 16.706l-.12.706h-.84l.06-.118V17v.059l-.06.059-.06.058h-.06l-.12.06-.06.058-.06.059h-.12l-.12.059h-.18l-.06.059h-.3l-.12-.06h-.12l-.06-.058h-.12l-.06-.059-.06-.059-.06-.059-.06-.058-.06-.06-.06-.058v-.118l-.06-.058v-.236l-.06-.059v-.058l.06-.118v-.235l.06-.118.06-.118.06-.058.06-.118.12-.059.06-.059.06-.117.12-.06.12-.058h.06l.12-.059h.12l.12-.059h.36v-.059H13.28v-.058l.06-.06V15l-.06-.059v-.059l-.06-.058-.06-.06-.06-.058h-.06l-.06-.059h-.78l-.12.059h-.3l-.06.059h-.12l-.06.059h-.06l.24-.765.06-.059h.18l.06-.059h.24l.12-.059H13.28l.12.06h.12l.06.058h.12l.12.059.06.059.12.058.06.06.12.117.06.059v.117l.06.06V15z"/>
        <path stroke="#FFF" stroke-width=".216" d="M13.94 16.706l-.12.706h-.84l.06-.118V17v.059l-.06.059-.06.058h-.06l-.12.06-.06.058-.06.059h-.12l-.12.059h-.18l-.06.059h-.3l-.12-.06h-.12l-.06-.058h-.12l-.06-.059-.06-.059-.06-.059-.06-.058-.06-.06-.06-.058v-.118l-.06-.058v-.236l-.06-.059v-.058l.06-.118v-.235l.06-.118.06-.118.06-.058.06-.118.12-.059.06-.059.06-.117.12-.06.12-.058h.06l.12-.059h.12l.12-.059h.36v-.059H13.28v-.058l.06-.06V15l-.06-.059v-.059l-.06-.058-.06-.06-.06-.058h-.06l-.06-.059h-.78l-.12.059h-.3l-.06.059h-.12l-.06.059h-.06l.24-.765.06-.059h.18l.06-.059h.24l.12-.059H13.28l.12.06h.12l.06.058h.12l.12.059.06.059.12.058.06.06.12.117.06.059v.117l.06.06V15l-.36 1.706"/>
        <path fill="#ED1C2E" fill-rule="nonzero" d="M13.16 15.824l-.06-.06h-.3l-.06.06h-.24v.058h-.12l-.06.06h-.06V16h-.06l-.06.059-.06.059-.06.058v.118l-.06.118.06.117v.06h.06l.06.058h.06l.06.059h.12l.12-.059h.12l.06-.059h.06l.06-.059h.06l.06-.058h.06v-.06l.06-.058v-.059l.06-.059v-.117l.06-.118v-.059z"/>
        <path fill="#FFF" fill-rule="nonzero" d="M7.04 17.412h-.9l.72-4.236h1.56l.18 2.471 1.08-2.47h1.62l-.78 4.235h-.9l.6-3.177h-.06l-1.32 3.177H7.82v-.118l-.06-.353v-.53l-.06-.587v-.589l-.06-.47v-.53h-.06z"/>
        <path stroke="#FFF" stroke-width=".216" d="M7.04 17.412h-.9l.72-4.236h1.56l.18 2.471 1.08-2.47h1.62l-.78 4.235h-.9l.6-3.177h-.06l-1.32 3.177H7.82v-.118l-.06-.353v-.53l-.06-.587v-.589l-.06-.47v-.53h-.06l-.54 3.177"/>
        <path fill="#FFF" fill-rule="nonzero" d="M30.32 16.706l-.12.706h-.84V17v.059l-.06.059-.06.058-.06.06h-.12l-.06.058-.06.059h-.12l-.06.059h-.18l-.12.059h-.24l-.12-.06h-.12l-.12-.058h-.06l-.12-.059-.06-.059-.06-.059-.06-.058v-.06L27.44 17l-.06-.118v-.118l-.06-.058v-.353l.06-.118v-.117l.06-.118.06-.118.06-.058.06-.118.06-.059.12-.059.06-.117.12-.06.06-.058h.12l.12-.059h.12l.12-.059h.3l.06-.059H29.66v-.294l-.06-.058-.06-.06-.06-.058h-.06l-.06-.059h-.84l-.06.059h-.3l-.06.059h-.18v.059h-.06l.24-.765.06-.059h.18l.06-.059h.24l.12-.059H29.66l.06.06h.12l.12.058h.12l.06.059.12.059.06.058.12.06.06.117.06.059.06.117.06.06V15z"/>
        <path fill="#FFF" fill-rule="nonzero" d="M30.2 17.412l.12-.706-.18.706.06-.06v.06z"/>
        <path fill="#FFF" fill-rule="nonzero" d="M29.36 17.412h.84v-.06h-.84v.06zM29.36 17.059V17v.412V17zM28.1 17.47h.48l.06-.058h.12l.06-.06h.12l.06-.058h.12l.06-.059.06-.059.06-.058.06-.06V17l-.06.059-.06.059-.06.058h-.06l-.06.06-.06.058h-.06l-.12.059h-.06l-.12.059h-.54zM27.32 16.47v.295l.06.059v.058l.06.118v.059l.06.059.06.058.06.06.06.058.12.059.06.059h.12l.12.059v-.06l-.12-.058h-.06l-.12-.059-.06-.059h-.12v-.059l-.06-.058-.06-.06-.06-.117v-.059l-.06-.058v-.353z"/>
        <path fill="#FFF" fill-rule="nonzero" d="M28.52 15.235h-.12l-.12.06h-.12l-.12.058-.12.059-.06.059-.12.058-.06.118-.06.059-.12.059-.06.117V16l-.06.118-.06.117v.236h.06v-.353l.06-.118.06-.118.06-.058.06-.118.06-.059.12-.059.06-.059.12-.058.12-.06.06-.058.12-.059h.24zM29.18 15.176h-.48l-.06.06h-.12v.058-.059H29.18zM29.6 15.176h.06-.48v.06h.48v-.06.06-.06zM29.66 15v.118l-.06.058h.06v-.118l.06-.058h-.06zM29.24 14.647l.12.059h.12l.06.059.06.059v.058l.06.06V15v-.176l-.06-.06-.06-.058h-.06l-.06-.059h-.18z"/>
        <path fill="#FFF" fill-rule="nonzero" d="M27.86 14.824h.12v-.06h.24l.12-.058h.3l.12-.059h.48-.78l-.12.059h-.24l-.12.059h-.06l-.06.059zM28.1 14.059l-.24.765.24-.765zM29.54 13.882h-.96l-.12.06h-.12l-.12.058h-.06l-.06.059h.06l.06-.059h.18l.06-.059h1.08zM30.68 15v-.412l-.06-.059-.06-.117-.06-.118-.06-.059-.06-.059-.12-.058-.12-.06-.06-.058-.12-.059h-.12l-.12-.059h-.18v.06h.3l.12.058.06.059h.12l.12.059.06.058.12.06.06.117.06.059.06.117v.06l.06.117v.118l-.06.176z"/>
        <path fill="#FFF" fill-rule="nonzero" d="M30.32 16.706L30.68 15h-.06l-.3 1.706z"/>
        <path fill="#FCB331" fill-rule="nonzero" d="M29.54 15.824h-.06v-.06h-.3l-.06.06h-.3v.058h-.12l-.06.06h-.06V16h-.06l-.06.059v.059l-.06.058v.06l-.06.058v.118l.06.117v.06h.06v.058h.06l.06.059h.18l.06-.059H29l.06-.059h.06l.06-.059h.06l.06-.058.06-.06.06-.058v-.059l.06-.059V16l.06-.059z"/>
        <path fill="#FFF" fill-rule="nonzero" d="M36.32 16.941v-.176l.06-.06.06-.058.06-.059.12-.059h.3l.12.06.06.058.06.059.06.059v.177h-.06l-.06-.06v-.118l-.06-.058-.06-.059h-.06l-.06-.059h-.18l-.06.06h-.06l-.06.058-.06.059V16.882l-.06.06z"/>
        <path fill="#FFF" fill-rule="nonzero" d="M36.62 16.941v-.176h.3V16.882h.06-.06v.06h-.12.06v-.118h-.18v.117z"/>
        <path fill="#FFF" fill-rule="nonzero" d="M36.32 16.941v.235l.06.06.06.058.06.059.12.059h.3l.12-.06.06-.058.06-.059.06-.059v-.235h-.06V17l-.06.059V17.176l-.06.06-.06.058h-.06l-.06.059h-.18l-.06-.059h-.06l-.06-.059-.06-.059v-.118L36.38 17v-.059z"/>
        <path fill="#FFF" fill-rule="nonzero" d="M36.62 16.941v.235h.06V17h.12l.06.176h.06L36.86 17h.06v-.059h-.24z"/>
        <path stroke="#FFF" stroke-width=".216" d="M36.32 17v-.176l.06-.06.06-.058.06-.059.06-.059h.36l.06.06.06.058.06.059.06.059v.352l-.06.06-.06.058-.06.059-.06.059h-.36l-.06-.06-.06-.058-.06-.059-.06-.059V17m.36.176l-.06-.411h.3l.12.176h-.06l-.12-.176h-.06v.411m0-.235l-.06.118h.06m0 .294h.12l.06-.059.06-.059.06-.059.06-.058v-.236l-.06-.058-.06-.06-.06-.058-.06-.059h-.24l-.06.059-.06.059-.06.059-.06.058v.236l.06.058.06.06.06.058.06.059h.12"/>
        <path fill="#FFF" fill-rule="nonzero" d="M30.56 17.412h.96l.3-1.824v-.117l.06-.06V15.295l.06-.118.06-.058v-.06l.06-.058.06-.059.06-.059h.12l.06-.058.12-.06h.18l.12-.058h.12l.12-.824h-.06l-.12.06h-.12L32.6 14h-.06l-.06.059-.06.059h-.06l-.06.058-.06.06-.06.058v.059l-.06.059-.06.059-.06.058.12-.588h-.96l-.6 3.47z"/>
        <path stroke="#FFF" stroke-width=".216" d="M30.56 17.412h.96l.3-1.824v-.117l.06-.06V15.295l.06-.118.06-.058v-.06l.06-.058.06-.059.06-.059h.12l.06-.058.12-.06h.18l.12-.058h.12l.12-.824h-.06l-.12.06h-.12L32.6 14h-.06l-.06.059-.06.059h-.06l-.06.058-.06.06-.06.058v.059l-.06.059-.06.059-.06.058.12-.588h-.96l-.6 3.47"/>
        <path fill="#FFF" fill-rule="nonzero" d="M21.86 17.412h.9l.36-1.824v-.235l.06-.059v-.059l.06-.059.06-.058v-.06l.06-.058.06-.059h.06l.12-.059.06-.058h.48v-.177l.06-.118v-.058l.06-.118v-.118l.06-.059.06-.058v-.06l.06-.058v-.059l-.06-.059h-.18l-.06.06h-.18L23.9 14h-.12l-.06.059h-.06l-.06.059v.058l-.06.06-.06.058-.06.059-.06.059v.059l-.06.058.12-.588h-.96l-.6 3.47z"/>
        <path stroke="#FFF" stroke-width=".216" d="M21.86 17.412h.9l.36-1.824v-.235l.06-.059v-.059l.06-.059.06-.058v-.06l.06-.058.06-.059h.06l.12-.059.06-.058h.48v-.177l.06-.118v-.058l.06-.118v-.118l.06-.059.06-.058v-.06l.06-.058v-.059l-.06-.059h-.18l-.06.06h-.18L23.9 14h-.12l-.06.059h-.06l-.06.059v.058l-.06.06-.06.058-.06.059-.06.059v.059l-.06.058.12-.588h-.96l-.6 3.47"/>
    </g>
</svg>
