<?xml version="1.0" encoding="UTF-8"?>
<svg width="30px" height="18px" viewBox="0 0 30 18" version="1.1" xmlns="http://www.w3.org/2000/svg" xmlns:xlink="http://www.w3.org/1999/xlink">
    <!-- Generator: Sketch 49.3 (51167) - http://www.bohemiancoding.com/sketch -->
    <title>Group 3</title>
    <desc>Created with Sketch.</desc>
    <defs>
        <rect id="path-1" x="0" y="0" width="30" height="18" rx="2"></rect>
    </defs>
    <g id="Symbols" stroke="none" stroke-width="1" fill="none" fill-rule="evenodd">
        <g id="Organism/Footer/Default" transform="translate(-1160.000000, -208.000000)">
            <g id="Group-3" transform="translate(1160.000000, 208.000000)">
                <g id="Rectangle">
                    <use fill="#FFFFFF" fill-rule="evenodd" xlink:href="#path-1"></use>
                    <rect stroke="#FFFFFF" stroke-width="1" x="0.5" y="0.5" width="29" height="17" rx="2"></rect>
                </g>
                <g id="Group-2" transform="translate(9.000000, 3.000000)">
                    <rect id="Rectangle-3" fill="#016FD0" x="0" y="0" width="12" height="12"></rect>
                    <polygon id="Path-2" fill="#FFFFFF" points="2.70676692 6.22556391 4.01233077 6.22556391 6.75035115 6.22556391 9.26551445 6.22556391 10.3772707 6.22556391 11.4402498 6.22556391 12.0108273 6.22556391 12.0108273 1.89473684 10.2443953 1.89473684 9.85886059 2.96989219 9.47751713 1.89473684 7.16216524 1.89473684 7.16216524 3.29509531 6.52795173 1.89473684 4.6621138 1.89473684"></polygon>
                    <polygon id="Path-2" fill="#016FD0" points="3.51879699 5.72027276 4.52244076 5.72027276 4.78941989 5.08043388 6.35218663 5.08043388 6.62727624 5.72027276 8.56079177 5.72027276 8.56079177 3.42511883 9.41544718 5.72027276 10.2326055 5.72027276 11.0800948 3.42511883 11.0800948 5.72027276 11.9890793 5.72027276 11.9890793 2.39097744 10.596466 2.39097744 9.84924661 4.46598191 9.10524921 2.39097744 7.67213901 2.39097744 7.67213901 5.65234402 6.17886684 2.39097744 5.02195727 2.39097744"></polygon>
                    <polygon id="Path-3" fill="#FFFFFF" points="5.14317873 4.31218609 6.04437776 4.31218609 5.59377824 3.23518033"></polygon>
                    <polygon id="Path-7" fill="#FFFFFF" points="4.33082707 6.17247107 4.33082707 10.0074144 9.10188619 10.0074144 9.83993612 9.18000586 10.6426682 10.0074144 12.000596 10.0074144 12.000596 5.72932331 4.33082707 5.72932331"></polygon>
                    <polygon id="Path-4" fill="#016FD0" points="7.65426312 6.24977054 4.85503684 6.24977054 4.85503684 9.57374678 7.65426312 9.57374678 7.65426312 8.81107962 5.76270654 8.81107962 5.76270654 8.28201851 7.65426312 8.28201851 7.65426312 7.54387627 5.76270654 7.54387627 5.76270654 6.99441901 7.65426312 6.99441901"></polygon>
                    <polygon id="Path-5" fill="#016FD0" points="8.8948763 6.24184344 9.85939089 7.29144872 10.8326062 6.24184344 11.9951675 6.24184344 10.4450219 7.87274852 11.9951675 9.54374589 10.8326062 9.54374589 9.85939089 8.49509883 8.8948763 9.54374589 7.6972822 9.54374589 9.2495742 7.89279466 7.6972822 6.24184344"></polygon>
                    <polygon id="Path-6" fill="#016FD0" points="12.0151518 6.94736842 11.1428571 7.89156856 12.0151518 8.83484879"></polygon>
                </g>
            </g>
        </g>
    </g>
</svg>