<svg xmlns="http://www.w3.org/2000/svg" width="43" height="30" viewBox="0 0 43 30">
    <g fill="none" fill-rule="nonzero">
        <path fill="#F1F2F2" d="M39.657 29H3.343A2.345 2.345 0 0 1 1 26.667V3.333A2.345 2.345 0 0 1 3.343 1h36.314A2.345 2.345 0 0 1 42 3.333v23.334C42 28.008 41.004 29 39.657 29z"/>
        <path fill="#263B7F" d="M11.175 11.66c-.356-.42-1.01-.66-1.84-.66H6.84c-.178 0-.297.12-.357.3l-1.009 6.54c0 .12.06.24.178.24h1.188c.178 0 .297-.12.356-.3l.297-1.68c0-.18.178-.3.356-.3h.772c1.662 0 2.612-.84 2.85-2.46.119-.78 0-1.32-.297-1.68zM9.631 13.4c-.118.9-.831.9-1.484.9H7.79l.237-1.74c0-.12.119-.18.178-.18h.178c.475 0 .891 0 1.129.24.118.24.178.42.118.78zm7.244-.18h-1.188c-.118 0-.178.06-.237.18l-.06.36-.059-.12c-.297-.36-.831-.48-1.425-.48-1.306 0-2.494 1.02-2.672 2.46-.118.72.06 1.44.475 1.92.357.42.891.6 1.544.6 1.069 0 1.663-.72 1.663-.72l-.06.36c0 .12.06.24.238.24h1.069c.178 0 .296-.12.356-.3l.653-4.26c-.06-.12-.178-.24-.297-.24zm-1.662 2.4c-.12.72-.654 1.2-1.366 1.2-.356 0-.653-.12-.831-.36-.178-.24-.238-.54-.178-.84.118-.72.653-1.14 1.365-1.14.356 0 .594.06.831.3.12.24.238.54.178.84zm8.075-2.4H22.1a.326.326 0 0 0-.297.18l-1.662 2.64-.713-2.58c-.06-.18-.178-.24-.356-.24h-1.188c-.118 0-.237.12-.178.3l1.366 4.14-1.247 1.8c-.119.12 0 .36.178.36h1.188c.118 0 .237-.06.297-.18l4.037-6.12c.06-.12-.06-.3-.237-.3z"/>
        <g fill="#1F9CD8">
            <path d="M26.96 10.615h-2.52c-.18 0-.3.123-.36.308l-1.02 6.708c0 .123.06.246.18.246h1.32c.12 0 .24-.123.24-.246l.3-1.846c0-.185.18-.308.36-.308h.78c1.68 0 2.64-.862 2.88-2.523.12-.739 0-1.292-.3-1.723-.36-.431-1.02-.616-1.86-.616m.3 2.462c-.12.923-.84.923-1.5.923h-.36l.24-1.785c0-.123.12-.184.18-.184H26c.48 0 .9 0 1.14.246.12.185.18.43.12.8M34.58 12.892h-1.2c-.12 0-.18.062-.24.185l-.06.37-.06-.124c-.24-.37-.84-.492-1.44-.492-1.32 0-2.52 1.046-2.7 2.523-.12.738.06 1.477.48 1.97.36.43.9.614 1.56.614 1.08 0 1.68-.738 1.68-.738l-.06.37c0 .122.06.245.24.245h1.08c.18 0 .3-.123.36-.307l.66-4.37c-.06-.123-.18-.246-.3-.246m-1.68 2.462c-.12.738-.66 1.23-1.38 1.23-.36 0-.66-.122-.84-.369-.18-.246-.24-.553-.18-.861.12-.739.66-1.23 1.38-1.23.36 0 .6.122.84.368.12.246.24.554.18.862M36.02 10.8L35 17.57c0 .122.06.245.18.245h1.08c.18 0 .3-.123.36-.307l1.02-6.708c0-.123-.06-.246-.24-.246h-1.2c-.06.061-.18.123-.18.246"/>
        </g>
    </g>
</svg>
