<svg xmlns="http://www.w3.org/2000/svg" width="20" height="20" viewBox="0 0 20 20">
    <path fill="#010002" fill-rule="nonzero" d="M17.448 5.554C16.902 1.607 12.968-.403 8.77.067 5.453.44 2.144 3.122 2.007 6.96c-.084 2.342.58 4.098 2.809 4.593.965-1.708-.31-2.081-.51-3.319-.818-5.056 5.832-8.509 9.315-4.976 2.412 2.447.823 9.97-3.062 9.187-3.722-.746 1.822-6.735-1.148-7.91-2.414-.956-3.696 2.922-2.551 4.85-.672 3.314-2.118 6.435-1.532 10.591 1.897-1.378 2.538-4.014 3.062-6.764.954.58 1.465 1.181 2.68 1.275 4.485.348 6.993-4.477 6.378-8.932z"/>
</svg>
