<svg xmlns="http://www.w3.org/2000/svg" width="43" height="30" viewBox="0 0 43 30">
    <g fill="none" fill-rule="nonzero">
        <path fill="#F1F2F2" d="M39.657 29H3.343A2.345 2.345 0 0 1 1 26.667V3.333A2.345 2.345 0 0 1 3.343 1h36.314A2.345 2.345 0 0 1 42 3.333v23.334C42 28.008 41.004 29 39.657 29z"/>
        <path fill="#005197" d="M17.228 20.328l1.67-10.145h2.684l-1.67 10.145zM29.695 10.428A7.408 7.408 0 0 0 27.249 10c-2.684 0-4.533 1.406-4.593 3.361 0 1.467 1.372 2.261 2.386 2.75 1.074.489 1.432.795 1.372 1.283 0 .673-.835.978-1.61.978-1.074 0-1.67-.183-2.565-.55l-.358-.183-.358 2.261c.656.306 1.79.55 3.042.55 2.863 0 4.712-1.344 4.712-3.483 0-1.161-.716-2.017-2.266-2.75-.955-.49-1.551-.795-1.492-1.284 0-.427.477-.855 1.551-.855.895 0 1.551.183 2.028.366l.239.123.358-2.14M36.674 10.183h-2.088c-.656 0-1.133.184-1.432.856l-3.996 9.289h2.863l.597-1.528h3.46c.059.367.357 1.528.357 1.528h2.505l-2.266-10.145zm-3.34 6.54c.238-.612 1.073-2.812 1.073-2.812s.239-.611.358-.978l.179.856s.537 2.444.596 2.933h-2.207zM14.961 10.183l-2.684 6.906-.298-1.406c-.477-1.65-2.028-3.36-3.758-4.277l2.446 8.86h2.863l4.235-10.144-2.804.061"/>
        <path fill="#F4A51D" d="M9.832 10.183H5.477l-.06.184c3.4.855 5.667 2.872 6.562 5.316l-.954-4.644c-.12-.672-.597-.856-1.193-.856"/>
        <path fill="#0A5395" d="M42 7H1V3.4C1 2.08 2.054 1 3.343 1h36.314C40.946 1 42 2.08 42 3.4V7z"/>
        <path fill="#F3A527" d="M1 23h41v3.6c0 1.32-1.054 2.4-2.343 2.4H3.343C2.054 29 1 27.92 1 26.6V23z"/>
    </g>
</svg>
