<svg xmlns="http://www.w3.org/2000/svg" width="13" height="16" viewBox="0 0 13 16">
    <path fill="#333" fill-rule="nonzero" d="M12.772 8.268a1.638 1.638 0 0 0-.504-.884 1.593 1.593 0 0 0-.9-.42c-1.076-.119-2.698-.178-4.868-.178-2.17 0-3.79.06-4.86.178a1.58 1.58 0 0 0-.903.42 1.702 1.702 0 0 0-.509.884C.076 8.958 0 10 0 11.393c0 1.416.076 2.458.228 3.125.076.351.244.646.505.884.26.238.56.375.899.41C2.708 15.937 4.33 16 6.5 16c2.17 0 3.793-.063 4.868-.188.34-.035.638-.172.895-.41a1.7 1.7 0 0 0 .509-.884c.152-.69.228-1.732.228-3.125 0-1.417-.076-2.459-.228-3.125zM3.71 9.17h-.939v5.08h-.877V9.17H.974v-.84h2.737v.84zm2.368 5.08h-.78v-.482c-.316.363-.615.544-.895.544-.27 0-.439-.11-.51-.33-.046-.143-.07-.36-.07-.652V9.84h.781v3.25c0 .19.003.294.01.312.017.125.078.187.183.187.158 0 .325-.125.5-.375V9.84h.781v4.411zm2.982-1.322c0 .435-.026.733-.078.894-.1.327-.307.49-.623.49-.28 0-.553-.163-.816-.49v.428h-.78V8.33h.78v1.938c.252-.321.523-.482.816-.482.316 0 .523.167.623.5.052.155.078.45.078.884v1.758zm2.965-.732h-1.57v.777c0 .411.135.616.404.616.193 0 .31-.107.35-.321a4.53 4.53 0 0 0 .018-.545h.798v.116c0 .292-.006.465-.017.518-.018.16-.079.321-.185.482-.21.316-.526.473-.947.473-.403 0-.72-.151-.947-.455-.17-.22-.255-.565-.255-1.036v-1.544c0-.47.082-.816.246-1.036.228-.304.54-.455.939-.455a1.1 1.1 0 0 1 .93.455c.158.22.236.565.236 1.036v.92zM7.94 10.51c.228 0 .342.2.342.598v1.884c0 .399-.115.598-.342.598-.135 0-.266-.065-.395-.196v-2.688c.129-.13.26-.196.395-.196zm2.912 0c-.263 0-.395.202-.395.607v.41h.79v-.41c0-.405-.132-.607-.395-.607zM3.202 3.562c-.082-.44-.26-1.07-.535-1.892A78.04 78.04 0 0 1 2.097 0h.93l.623 2.348L4.246 0h.895L4.079 3.562v2.42h-.877v-2.42zm3.114 2.483c-.392 0-.699-.152-.921-.456-.164-.226-.246-.577-.246-1.053V2.973c0-.476.082-.824.246-1.044.222-.304.529-.456.92-.456.404 0 .714.152.93.456.164.22.246.568.246 1.044v1.563c0 .482-.082.833-.245 1.053-.217.304-.527.456-.93.456zm-.377-3.232v1.874c0 .417.125.625.377.625.251 0 .377-.208.377-.625V2.813c0-.411-.126-.617-.377-.617-.252 0-.377.206-.377.617zm2.789 3.232c-.269 0-.441-.11-.518-.33-.046-.144-.07-.367-.07-.67V1.527h.798v3.276c0 .197.003.301.01.313.017.131.078.196.183.196.159 0 .325-.127.5-.383V1.527h.799v4.455h-.798v-.49c-.31.368-.611.553-.904.553z"/>
</svg>
